<svg xmlns="http://www.w3.org/2000/svg" width="272.833" height="351.571">
    <path d="M19.997 0l-19.997 97.532 57.353 54.113-37.263 66.426 75.823 133.5h82.951l76.147-133.5-37.587-66.426 55.409-54.113-18.238-97.532-77.998 103.878h-78.091z" fill="#6ccb94" fill-opacity=".996"/>
    <path d="M20.09 218.071l37.262-66.426 80.028 66.426z" fill="#5dbd85" fill-opacity=".996"/>
    <path d="M57.353 151.646l80.028 66.426-38.877-114.192z" fill="#64c48c" fill-opacity=".996"/>
    <path d="M255.01 218.071l-37.587-66.426-80.041 66.426z" fill="#6ecc95" fill-opacity=".996"/>
    <path d="M95.912 351.571h82.951l-41.482-133.5z" fill="#5ebe86" fill-opacity=".996"/>
    <path d="M217.423 151.646l-80.041 66.426 39.214-114.192z" fill="#76d29c" fill-opacity=".996"/>
    <path d="M254.593.001l18.238 97.532-55.409 54.113-40.828-47.767z" fill="#74d09b" fill-opacity=".996"/>
    <path d="M137.381 218.071l-41.482 133.5-75.809-133.5z" fill="#58b880" fill-opacity=".996"/>
    <path d="M19.997.001l-19.997 97.532 57.353 54.113 41.152-47.767z" fill="#5fbf87" fill-opacity=".996"/>
    <path d="M137.381 218.071l39.214-114.192h-78.091z" fill="#6ecc95" fill-opacity=".996"/>
    <path d="M137.381 218.071l41.482 133.5 76.147-133.5z" fill="#64c48c" fill-opacity=".996"/>
    <g>
        <path d="M95.534 125.297c-10.562 0-11.5 11.76-11.5 11.76v40.507c-8.64 0-8.531 5.551-8.531 11.468v80.142c0 6.424 2.398 11.585 10.375 11.585h102c7.977 0 10.406-5.161 10.406-11.585v-80.142c0-6.21-.269-11.152-9.625-11.555v-40.419s-.16-11.76-11.5-11.76zm12.715 13.649h56.957c9.014 0 9.469.4 9.469 9.659v28.842h-75.894v-28.842c0-9.528.32-9.659 9.469-9.659zm28.66 59.643c12.521 0 18.656 6.358 18.656 19.14 0 9.321-3.697 14.105-11.475 17.772l6.922 25.953-27.051.191 6.549-26.098c-7.787-3.664-12.288-8.491-12.288-17.819 0-12.782 6.167-19.14 18.688-19.14z" fill="#d5e5db"/>
        <path d="M124.073 202.009c-5.138 4.242-5.852 8.444-5.852 15.719 0 9.321 4.614 14.247 12.393 17.914l-6.722 25.983 27.249-.067-7.168-26.074c6.463-2.802 10.809-7.396 11.565-14.633l42.7 29.558s.047 12.589.047 18.765c0 6.424-2.398 11.585-10.375 11.585h-102c-7.977 0-10.406-5.161-10.406-11.585v-80.142c0-6.21 2.018-11.227 9.625-11.555" fill="#cbded7"/>
    </g>
</svg>
